<svg xmlns="http://www.w3.org/2000/svg" viewBox="0 0 1000 1000" width="1000" height="1000"><defs>
 <radialGradient id="bg" cx=".5" cy=".48" r=".72"><stop offset="0" stop-color="#2A2218"/><stop offset=".55" stop-color="#0E0C0A"/><stop offset="1" stop-color="#030303"/></radialGradient>
 <linearGradient id="sat" x1="0" y1="0" x2="0" y2="1"><stop offset="0" stop-color="#FFFFFF"/><stop offset=".22" stop-color="#D9DDE3"/><stop offset=".44" stop-color="#8E949D"/><stop offset=".5" stop-color="#3C4048"/><stop offset=".56" stop-color="#E9ECF0"/><stop offset=".78" stop-color="#A9AFB8"/><stop offset=".92" stop-color="#4A4E57"/><stop offset="1" stop-color="#1B1D22"/></linearGradient><linearGradient id="gA" gradientUnits="userSpaceOnUse" x1="39.2" y1="57.3" x2="60.8" y2="42.7"><stop offset="0" stop-color="#5E3708"/><stop offset=".18" stop-color="#C98F1E"/><stop offset=".38" stop-color="#FFF6CC"/><stop offset=".5" stop-color="#F7D774"/><stop offset=".62" stop-color="#D9A030"/><stop offset=".85" stop-color="#C98F1E"/><stop offset="1" stop-color="#2C1804"/></linearGradient><linearGradient id="gB" gradientUnits="userSpaceOnUse" x1="39.2" y1="42.7" x2="60.8" y2="57.3"><stop offset="0" stop-color="#5E3708"/><stop offset=".18" stop-color="#C98F1E"/><stop offset=".38" stop-color="#FFF6CC"/><stop offset=".5" stop-color="#F7D774"/><stop offset=".62" stop-color="#D9A030"/><stop offset=".85" stop-color="#C98F1E"/><stop offset="1" stop-color="#2C1804"/></linearGradient>
 <linearGradient id="flk" x1="0" y1="0" x2="1" y2="1"><stop offset="0" stop-color="#FFF6CC"/><stop offset="1" stop-color="#C98F1E"/></linearGradient>
 <linearGradient id="sheen" x1="0" y1="0" x2="1" y2="0"><stop offset=".42" stop-color="#fff" stop-opacity="0"/><stop offset=".5" stop-color="#fff" stop-opacity=".5"/><stop offset=".58" stop-color="#fff" stop-opacity="0"/></linearGradient>
 <filter id="gl" x="-30%" y="-60%" width="160%" height="220%"><feGaussianBlur stdDeviation="16"/><feColorMatrix type="matrix" values="0 0 0 0 0.788235294117647 0 0 0 0 0.8235294117647058 0 0 0 0 0.8784313725490196 0 0 0 1.3 0"/></filter>
 <filter id="glR" x="-30%" y="-60%" width="160%" height="220%"><feGaussianBlur stdDeviation="16"/><feColorMatrix type="matrix" values="0 0 0 0 0.9490196078431372 0 0 0 0 0.7215686274509804 0 0 0 0 0.29411764705882354 0 0 0 1.3 0"/></filter>
 <filter id="bl"><feGaussianBlur stdDeviation="2.5"/></filter><filter id="sh" x="-20%" y="-20%" width="140%" height="140%"><feGaussianBlur stdDeviation="2.2"/></filter>
 <clipPath id="cA"><polygon points="0,0 32,0 100,100 68,100"/></clipPath>
 <clipPath id="cL"><polygon points="8,0 32,0 50,60 68,0 100,0 62,100 38,100 0,10"/><polygon transform="translate(116,0)" points="10,0 32,0 32,66 94,66 82,100 0,100 0,10"/></clipPath>
</defs>
<rect width="1000" height="1000" fill="url(#bg)"/>
<g fill="none" stroke="#F2B84B" stroke-linecap="round" opacity=".35"><path d="M-20,830 C240,640 520,1010 1040,300" stroke-width="2"/><path d="M-20,860 C250,700 520,1030 1040,350" stroke-width="1.1"/></g>
<g><path transform="translate(0,658) rotate(280) scale(7.6)" d="M0,-1 C.5,-.4 .5,.4 0,1 C-.5,.4 -.5,-.4 0,-1Z" fill="url(#flk)" opacity="0.58" /><path transform="translate(396,673) rotate(330) scale(10.4)" d="M0,-1 C.5,-.4 .5,.4 0,1 C-.5,.4 -.5,-.4 0,-1Z" fill="url(#flk)" opacity="0.33" /><path transform="translate(267,649) rotate(128) scale(5.3)" d="M0,-1 C.5,-.4 .5,.4 0,1 C-.5,.4 -.5,-.4 0,-1Z" fill="url(#flk)" opacity="0.71" /><path transform="translate(87,434) rotate(340) scale(10.9)" d="M0,-1 C.5,-.4 .5,.4 0,1 C-.5,.4 -.5,-.4 0,-1Z" fill="url(#flk)" opacity="0.37" filter="url(#bl)"/><path transform="translate(460,270) rotate(29) scale(9.6)" d="M0,-1 C.5,-.4 .5,.4 0,1 C-.5,.4 -.5,-.4 0,-1Z" fill="url(#flk)" opacity="0.53" filter="url(#bl)"/><path transform="translate(312,237) rotate(245) scale(10.8)" d="M0,-1 C.5,-.4 .5,.4 0,1 C-.5,.4 -.5,-.4 0,-1Z" fill="url(#flk)" opacity="0.33" filter="url(#bl)"/><path transform="translate(955,827) rotate(85) scale(13.2)" d="M0,-1 C.5,-.4 .5,.4 0,1 C-.5,.4 -.5,-.4 0,-1Z" fill="url(#flk)" opacity="0.56" filter="url(#bl)"/><path transform="translate(158,424) rotate(131) scale(6.6)" d="M0,-1 C.5,-.4 .5,.4 0,1 C-.5,.4 -.5,-.4 0,-1Z" fill="url(#flk)" opacity="0.67" /><path transform="translate(796,833) rotate(156) scale(9.4)" d="M0,-1 C.5,-.4 .5,.4 0,1 C-.5,.4 -.5,-.4 0,-1Z" fill="url(#flk)" opacity="0.52" /><path transform="translate(933,470) rotate(119) scale(9.1)" d="M0,-1 C.5,-.4 .5,.4 0,1 C-.5,.4 -.5,-.4 0,-1Z" fill="url(#flk)" opacity="0.62" /><path transform="translate(504,921) rotate(139) scale(10.1)" d="M0,-1 C.5,-.4 .5,.4 0,1 C-.5,.4 -.5,-.4 0,-1Z" fill="url(#flk)" opacity="0.57" /><path transform="translate(705,250) rotate(291) scale(12.7)" d="M0,-1 C.5,-.4 .5,.4 0,1 C-.5,.4 -.5,-.4 0,-1Z" fill="url(#flk)" opacity="0.32" filter="url(#bl)"/><path transform="translate(79,442) rotate(123) scale(6.3)" d="M0,-1 C.5,-.4 .5,.4 0,1 C-.5,.4 -.5,-.4 0,-1Z" fill="url(#flk)" opacity="0.59" filter="url(#bl)"/><path transform="translate(997,443) rotate(60) scale(9.8)" d="M0,-1 C.5,-.4 .5,.4 0,1 C-.5,.4 -.5,-.4 0,-1Z" fill="url(#flk)" opacity="0.63" /><path transform="translate(956,230) rotate(22) scale(6.9)" d="M0,-1 C.5,-.4 .5,.4 0,1 C-.5,.4 -.5,-.4 0,-1Z" fill="url(#flk)" opacity="0.42" /><path transform="translate(687,340) rotate(157) scale(13.0)" d="M0,-1 C.5,-.4 .5,.4 0,1 C-.5,.4 -.5,-.4 0,-1Z" fill="url(#flk)" opacity="0.63" filter="url(#bl)"/><path transform="translate(12,165) rotate(242) scale(9.4)" d="M0,-1 C.5,-.4 .5,.4 0,1 C-.5,.4 -.5,-.4 0,-1Z" fill="url(#flk)" opacity="0.64" filter="url(#bl)"/><path transform="translate(124,210) rotate(288) scale(5.6)" d="M0,-1 C.5,-.4 .5,.4 0,1 C-.5,.4 -.5,-.4 0,-1Z" fill="url(#flk)" opacity="0.54" filter="url(#bl)"/><path transform="translate(15,71) rotate(48) scale(9.9)" d="M0,-1 C.5,-.4 .5,.4 0,1 C-.5,.4 -.5,-.4 0,-1Z" fill="url(#flk)" opacity="0.59" /></g><g><circle cx="904" cy="588" r="1.3" fill="#F2B84B" opacity="0.28"/><circle cx="752" cy="407" r="2.0" fill="#F2B84B" opacity="0.62"/><circle cx="499" cy="738" r="2.0" fill="#F2B84B" opacity="0.26"/><circle cx="951" cy="777" r="1.8" fill="#F2B84B" opacity="0.52"/><circle cx="917" cy="44" r="1.7" fill="#F2B84B" opacity="0.56"/><circle cx="261" cy="443" r="1.1" fill="#F2B84B" opacity="0.55"/><circle cx="630" cy="999" r="1.5" fill="#F2B84B" opacity="0.22"/><circle cx="634" cy="256" r="0.8" fill="#F2B84B" opacity="0.16"/><circle cx="239" cy="382" r="2.0" fill="#F2B84B" opacity="0.16"/><circle cx="142" cy="508" r="0.8" fill="#F2B84B" opacity="0.51"/><circle cx="737" cy="52" r="1.6" fill="#F2B84B" opacity="0.36"/><circle cx="461" cy="811" r="1.1" fill="#F2B84B" opacity="0.56"/><circle cx="265" cy="676" r="2.0" fill="#F2B84B" opacity="0.29"/><circle cx="748" cy="262" r="0.7" fill="#F2B84B" opacity="0.48"/><circle cx="258" cy="76" r="1.2" fill="#F2B84B" opacity="0.42"/><circle cx="251" cy="304" r="1.1" fill="#F2B84B" opacity="0.41"/><circle cx="2" cy="88" r="1.8" fill="#F2B84B" opacity="0.31"/><circle cx="757" cy="164" r="0.9" fill="#F2B84B" opacity="0.21"/><circle cx="445" cy="511" r="2.0" fill="#F2B84B" opacity="0.54"/><circle cx="256" cy="447" r="1.6" fill="#F2B84B" opacity="0.44"/><circle cx="517" cy="70" r="1.9" fill="#F2B84B" opacity="0.34"/><circle cx="200" cy="649" r="1.1" fill="#F2B84B" opacity="0.44"/><circle cx="4" cy="533" r="1.7" fill="#F2B84B" opacity="0.20"/><circle cx="430" cy="625" r="1.1" fill="#F2B84B" opacity="0.31"/><circle cx="567" cy="445" r="1.1" fill="#F2B84B" opacity="0.36"/><circle cx="998" cy="583" r="1.1" fill="#F2B84B" opacity="0.38"/><circle cx="720" cy="696" r="1.0" fill="#F2B84B" opacity="0.62"/><circle cx="78" cy="230" r="1.5" fill="#F2B84B" opacity="0.44"/><circle cx="408" cy="199" r="1.1" fill="#F2B84B" opacity="0.17"/><circle cx="826" cy="58" r="2.1" fill="#F2B84B" opacity="0.53"/><circle cx="152" cy="82" r="0.6" fill="#F2B84B" opacity="0.15"/><circle cx="867" cy="637" r="1.5" fill="#F2B84B" opacity="0.19"/><circle cx="412" cy="403" r="0.6" fill="#F2B84B" opacity="0.24"/><circle cx="545" cy="144" r="1.3" fill="#F2B84B" opacity="0.35"/><circle cx="820" cy="148" r="0.7" fill="#F2B84B" opacity="0.18"/><circle cx="405" cy="944" r="1.7" fill="#F2B84B" opacity="0.52"/><circle cx="949" cy="346" r="1.3" fill="#F2B84B" opacity="0.36"/><circle cx="884" cy="919" r="0.8" fill="#F2B84B" opacity="0.36"/><circle cx="970" cy="57" r="2.0" fill="#F2B84B" opacity="0.61"/><circle cx="220" cy="99" r="1.6" fill="#F2B84B" opacity="0.65"/><circle cx="5" cy="884" r="0.8" fill="#F2B84B" opacity="0.54"/><circle cx="940" cy="286" r="0.9" fill="#F2B84B" opacity="0.40"/><circle cx="97" cy="174" r="1.3" fill="#F2B84B" opacity="0.64"/><circle cx="481" cy="765" r="1.1" fill="#F2B84B" opacity="0.23"/><circle cx="282" cy="991" r="0.8" fill="#F2B84B" opacity="0.45"/><circle cx="499" cy="587" r="1.8" fill="#F2B84B" opacity="0.47"/><circle cx="770" cy="940" r="1.6" fill="#F2B84B" opacity="0.41"/><circle cx="715" cy="808" r="1.2" fill="#F2B84B" opacity="0.30"/><circle cx="66" cy="784" r="1.6" fill="#F2B84B" opacity="0.44"/><circle cx="677" cy="643" r="1.4" fill="#F2B84B" opacity="0.62"/><circle cx="590" cy="154" r="1.0" fill="#F2B84B" opacity="0.58"/><circle cx="965" cy="234" r="1.2" fill="#F2B84B" opacity="0.62"/><circle cx="396" cy="391" r="1.9" fill="#F2B84B" opacity="0.28"/><circle cx="359" cy="381" r="1.5" fill="#F2B84B" opacity="0.47"/><circle cx="604" cy="724" r="1.1" fill="#F2B84B" opacity="0.50"/><circle cx="608" cy="302" r="1.5" fill="#F2B84B" opacity="0.30"/><circle cx="9" cy="28" r="2.0" fill="#F2B84B" opacity="0.53"/><circle cx="350" cy="719" r="1.7" fill="#F2B84B" opacity="0.46"/><circle cx="146" cy="75" r="1.2" fill="#F2B84B" opacity="0.26"/><circle cx="731" cy="589" r="1.1" fill="#F2B84B" opacity="0.58"/><circle cx="234" cy="220" r="1.3" fill="#F2B84B" opacity="0.29"/><circle cx="86" cy="110" r="1.8" fill="#F2B84B" opacity="0.42"/><circle cx="539" cy="183" r="2.0" fill="#F2B84B" opacity="0.53"/><circle cx="958" cy="478" r="1.2" fill="#F2B84B" opacity="0.53"/><circle cx="856" cy="21" r="1.3" fill="#F2B84B" opacity="0.35"/><circle cx="815" cy="517" r="2.0" fill="#F2B84B" opacity="0.52"/><circle cx="182" cy="32" r="2.0" fill="#F2B84B" opacity="0.45"/><circle cx="334" cy="720" r="2.0" fill="#F2B84B" opacity="0.19"/><circle cx="929" cy="134" r="1.0" fill="#F2B84B" opacity="0.42"/><circle cx="693" cy="401" r="0.7" fill="#F2B84B" opacity="0.58"/><circle cx="431" cy="551" r="0.7" fill="#F2B84B" opacity="0.41"/><circle cx="605" cy="879" r="0.8" fill="#F2B84B" opacity="0.29"/><circle cx="353" cy="801" r="1.5" fill="#F2B84B" opacity="0.39"/><circle cx="253" cy="389" r="1.0" fill="#F2B84B" opacity="0.45"/><circle cx="232" cy="752" r="1.2" fill="#F2B84B" opacity="0.23"/><circle cx="478" cy="889" r="1.2" fill="#F2B84B" opacity="0.48"/><circle cx="287" cy="934" r="1.7" fill="#F2B84B" opacity="0.15"/><circle cx="281" cy="147" r="1.9" fill="#F2B84B" opacity="0.37"/><circle cx="881" cy="695" r="1.2" fill="#F2B84B" opacity="0.49"/><circle cx="178" cy="613" r="1.9" fill="#F2B84B" opacity="0.62"/><circle cx="757" cy="71" r="0.7" fill="#F2B84B" opacity="0.46"/><circle cx="764" cy="770" r="1.8" fill="#F2B84B" opacity="0.25"/><circle cx="871" cy="295" r="1.0" fill="#F2B84B" opacity="0.21"/><circle cx="65" cy="490" r="0.9" fill="#F2B84B" opacity="0.55"/><circle cx="474" cy="259" r="1.1" fill="#F2B84B" opacity="0.31"/><circle cx="583" cy="48" r="1.5" fill="#F2B84B" opacity="0.52"/><circle cx="30" cy="880" r="2.1" fill="#F2B84B" opacity="0.23"/><circle cx="413" cy="437" r="1.9" fill="#F2B84B" opacity="0.24"/><circle cx="618" cy="867" r="0.8" fill="#F2B84B" opacity="0.35"/><circle cx="471" cy="847" r="1.6" fill="#F2B84B" opacity="0.28"/><circle cx="798" cy="846" r="1.3" fill="#F2B84B" opacity="0.52"/><circle cx="360" cy="408" r="1.8" fill="#F2B84B" opacity="0.24"/><circle cx="153" cy="108" r="1.8" fill="#F2B84B" opacity="0.28"/><circle cx="83" cy="857" r="0.8" fill="#F2B84B" opacity="0.23"/><circle cx="265" cy="830" r="1.7" fill="#F2B84B" opacity="0.55"/><circle cx="238" cy="310" r="1.5" fill="#F2B84B" opacity="0.52"/><circle cx="421" cy="105" r="1.5" fill="#F2B84B" opacity="0.19"/><circle cx="968" cy="609" r="1.3" fill="#F2B84B" opacity="0.28"/><circle cx="208" cy="596" r="1.9" fill="#F2B84B" opacity="0.31"/><circle cx="214" cy="886" r="1.1" fill="#F2B84B" opacity="0.47"/><circle cx="230" cy="716" r="0.6" fill="#F2B84B" opacity="0.58"/><circle cx="863" cy="699" r="1.8" fill="#F2B84B" opacity="0.29"/><circle cx="352" cy="619" r="1.5" fill="#F2B84B" opacity="0.55"/><circle cx="589" cy="526" r="0.9" fill="#F2B84B" opacity="0.57"/><circle cx="119" cy="636" r="1.5" fill="#F2B84B" opacity="0.59"/><circle cx="359" cy="791" r="0.9" fill="#F2B84B" opacity="0.40"/><circle cx="945" cy="676" r="0.6" fill="#F2B84B" opacity="0.56"/><circle cx="698" cy="275" r="0.6" fill="#F2B84B" opacity="0.25"/><circle cx="415" cy="108" r="1.1" fill="#F2B84B" opacity="0.37"/><circle cx="525" cy="82" r="0.6" fill="#F2B84B" opacity="0.47"/></g>
<g transform="translate(98,405) scale(2.5) skewX(-12)">
 <g filter="url(#gl)" opacity=".4"><polygon points="8,0 32,0 50,60 68,0 100,0 62,100 38,100 0,10"/><polygon transform="translate(116,0)" points="10,0 32,0 32,66 94,66 82,100 0,100 0,10"/></g>
 <g filter="url(#glR)" opacity=".45" transform="translate(226,0)"><polygon points="0,0 32,0 100,100 68,100"/><polygon points="68,0 100,0 32,100 0,100"/></g>
 <!-- V + L -->
 <g fill="url(#sat)" stroke="#FFFFFF" stroke-width="1" stroke-linejoin="round" paint-order="stroke"><polygon points="8,0 32,0 50,60 68,0 100,0 62,100 38,100 0,10"/><polygon transform="translate(116,0)" points="10,0 32,0 32,66 94,66 82,100 0,100 0,10"/></g>
 <g clip-path="url(#cL)"><rect x="-10" y="0" width="230" height="7" fill="#fff" opacity=".38"/></g>
 <!-- X als gekreuzte Satin-Bänder -->
 <g transform="translate(226,0)">
  <polygon points="0,0 32,0 100,100 68,100" fill="url(#gA)" stroke="#FFF2BE" stroke-width=".9" stroke-linejoin="round" paint-order="stroke"/>
  <g clip-path="url(#cA)"><polygon points="68,0 100,0 32,100 0,100" transform="translate(3,5)" fill="#000" opacity=".55" filter="url(#sh)"/></g>
  <polygon points="68,0 100,0 32,100 0,100" fill="url(#gB)" stroke="#FFF2BE" stroke-width=".9" stroke-linejoin="round" paint-order="stroke"/>
  <polygon points="68,0 100,0 32,100 0,100" fill="none" stroke="#fff" stroke-opacity=".35" stroke-width=".6" transform="translate(-1.6,0)"/>
 </g>
</g></svg>