<svg xmlns="http://www.w3.org/2000/svg" viewBox="0 0 1000 400" width="1000" height="400"><defs>
 <radialGradient id="bg" cx=".5" cy=".48" r=".72"><stop offset="0" stop-color="#2A2218"/><stop offset=".55" stop-color="#0E0C0A"/><stop offset="1" stop-color="#030303"/></radialGradient>
 <linearGradient id="sat" x1="0" y1="0" x2="0" y2="1"><stop offset="0" stop-color="#FFF6CC"/><stop offset=".22" stop-color="#F7D774"/><stop offset=".44" stop-color="#C98F1E"/><stop offset=".5" stop-color="#5E3708"/><stop offset=".56" stop-color="#FFE7A0"/><stop offset=".78" stop-color="#D9A030"/><stop offset=".92" stop-color="#8A5612"/><stop offset="1" stop-color="#2C1804"/></linearGradient><linearGradient id="gA" gradientUnits="userSpaceOnUse" x1="39.2" y1="57.3" x2="60.8" y2="42.7"><stop offset="0" stop-color="#5E3708"/><stop offset=".18" stop-color="#C98F1E"/><stop offset=".38" stop-color="#FFF6CC"/><stop offset=".5" stop-color="#F7D774"/><stop offset=".62" stop-color="#D9A030"/><stop offset=".85" stop-color="#C98F1E"/><stop offset="1" stop-color="#2C1804"/></linearGradient><linearGradient id="gB" gradientUnits="userSpaceOnUse" x1="39.2" y1="42.7" x2="60.8" y2="57.3"><stop offset="0" stop-color="#5E3708"/><stop offset=".18" stop-color="#C98F1E"/><stop offset=".38" stop-color="#FFF6CC"/><stop offset=".5" stop-color="#F7D774"/><stop offset=".62" stop-color="#D9A030"/><stop offset=".85" stop-color="#C98F1E"/><stop offset="1" stop-color="#2C1804"/></linearGradient>
 <linearGradient id="flk" x1="0" y1="0" x2="1" y2="1"><stop offset="0" stop-color="#FFF6CC"/><stop offset="1" stop-color="#C98F1E"/></linearGradient>
 <linearGradient id="sheen" x1="0" y1="0" x2="1" y2="0"><stop offset=".42" stop-color="#fff" stop-opacity="0"/><stop offset=".5" stop-color="#fff" stop-opacity=".5"/><stop offset=".58" stop-color="#fff" stop-opacity="0"/></linearGradient>
 <filter id="gl" x="-30%" y="-60%" width="160%" height="220%"><feGaussianBlur stdDeviation="16"/><feColorMatrix type="matrix" values="0 0 0 0 0.9490196078431372 0 0 0 0 0.7215686274509804 0 0 0 0 0.29411764705882354 0 0 0 1.3 0"/></filter>
 <filter id="glR" x="-30%" y="-60%" width="160%" height="220%"><feGaussianBlur stdDeviation="16"/><feColorMatrix type="matrix" values="0 0 0 0 0.9490196078431372 0 0 0 0 0.7215686274509804 0 0 0 0 0.29411764705882354 0 0 0 1.3 0"/></filter>
 <filter id="bl"><feGaussianBlur stdDeviation="2.5"/></filter><filter id="sh" x="-20%" y="-20%" width="140%" height="140%"><feGaussianBlur stdDeviation="2.2"/></filter>
 <clipPath id="cA"><polygon points="0,0 32,0 100,100 68,100"/></clipPath>
 <clipPath id="cL"><polygon points="8,0 32,0 50,60 68,0 100,0 62,100 38,100 0,10"/><polygon transform="translate(116,0)" points="10,0 32,0 32,66 94,66 82,100 0,100 0,10"/></clipPath>
</defs>

<g transform="translate(98,405) scale(2.5) skewX(-12)">
 <g filter="url(#gl)" opacity=".4"><polygon points="8,0 32,0 50,60 68,0 100,0 62,100 38,100 0,10"/><polygon transform="translate(116,0)" points="10,0 32,0 32,66 94,66 82,100 0,100 0,10"/></g>
 <g filter="url(#glR)" opacity=".45" transform="translate(226,0)"><polygon points="0,0 32,0 100,100 68,100"/><polygon points="68,0 100,0 32,100 0,100"/></g>
 <!-- V + L -->
 <g fill="url(#sat)" stroke="#FFF2BE" stroke-width="1" stroke-linejoin="round" paint-order="stroke"><polygon points="8,0 32,0 50,60 68,0 100,0 62,100 38,100 0,10"/><polygon transform="translate(116,0)" points="10,0 32,0 32,66 94,66 82,100 0,100 0,10"/></g>
 <g clip-path="url(#cL)"><rect x="-10" y="0" width="230" height="7" fill="#fff" opacity=".38"/></g>
 <!-- X als gekreuzte Satin-Bänder -->
 <g transform="translate(226,0)">
  <polygon points="0,0 32,0 100,100 68,100" fill="url(#gA)" stroke="#FFF2BE" stroke-width=".9" stroke-linejoin="round" paint-order="stroke"/>
  <g clip-path="url(#cA)"><polygon points="68,0 100,0 32,100 0,100" transform="translate(3,5)" fill="#000" opacity=".55" filter="url(#sh)"/></g>
  <polygon points="68,0 100,0 32,100 0,100" fill="url(#gB)" stroke="#FFF2BE" stroke-width=".9" stroke-linejoin="round" paint-order="stroke"/>
  <polygon points="68,0 100,0 32,100 0,100" fill="none" stroke="#fff" stroke-opacity=".35" stroke-width=".6" transform="translate(-1.6,0)"/>
 </g>
</g></svg>